<?xml version="1.0" standalone="no"?>
<!DOCTYPE svg PUBLIC "-//W3C//DTD SVG 20010904//EN"
 "http://www.w3.org/TR/2001/REC-SVG-20010904/DTD/svg10.dtd">
<svg version="1.0" xmlns="http://www.w3.org/2000/svg"
 width="186.000000pt" height="186.000000pt" viewBox="0 0 186.000000 186.000000"
 preserveAspectRatio="xMidYMid meet">
<metadata>
Created by potrace 1.11, written by Peter Selinger 2001-2013
</metadata>
<g transform="translate(0.000000,186.000000) scale(0.100000,-0.100000)"
fill="#000000" stroke="none">
<path d="M0 930 l0 -930 930 0 930 0 0 930 0 930 -930 0 -930 0 0 -930z m1178
51 c183 -362 332 -661 332 -665 0 -4 -36 -6 -81 -4 l-81 3 -76 145 -77 145
-183 0 c-100 0 -182 1 -182 3 0 1 18 38 40 82 l40 80 100 0 c55 0 100 3 99 8
0 4 -78 162 -173 352 l-174 345 -291 -583 -291 -582 -85 0 -85 0 156 313 c86
171 237 471 336 665 l180 352 82 0 83 0 331 -659z m339 -8 l334 -663 -85 0
-86 0 -330 660 c-181 363 -330 662 -330 665 0 3 37 5 81 3 l82 -3 334 -662z
m-838 -325 l-169 -338 -80 0 c-44 0 -80 2 -80 4 0 2 93 192 206 422 l206 419
43 -85 43 -85 -169 -337z"/>
</g>
</svg>
